<svg xmlns="http://www.w3.org/2000/svg" viewBox="0 0 24 24"><defs><style>.a{fill:#b22234;}.b{fill:#fff;}.c{fill:#3c3b6e;}</style></defs><path class="a" d="M10.6.089V1.846h7.777A11.779,11.779,0,0,0,10.6.089Z"/><path class="b" d="M10.6,3.692h10.05a12.035,12.035,0,0,0-2.273-1.846H10.6Z"/><path class="a" d="M10.6,5.538H22.1a12.13,12.13,0,0,0-1.454-1.846H10.6Z"/><path class="b" d="M10.6,7.385h12.48A11.92,11.92,0,0,0,22.1,5.538H10.6Z"/><path class="a" d="M10.6,9.231H23.666a11.851,11.851,0,0,0-.589-1.846H10.6Z"/><path class="b" d="M10.6,11.077H23.953a11.913,11.913,0,0,0-.287-1.846H10.6Z"/><path class="a" d="M10.6,12.923H23.953c.024-.306.047-.611.047-.923s-.023-.617-.047-.923H10.6Z"/><path class="b" d="M.047,12.923a11.913,11.913,0,0,0,.287,1.846H23.666a11.913,11.913,0,0,0,.287-1.846H.047Z"/><path class="a" d="M.923,16.615H23.077a11.817,11.817,0,0,0,.589-1.846H.334A11.817,11.817,0,0,0,.923,16.615Z"/><path class="b" d="M1.9,18.462H22.1a11.92,11.92,0,0,0,.976-1.847H.923A11.92,11.92,0,0,0,1.9,18.462Z"/><path class="a" d="M3.353,20.308H20.647A12.081,12.081,0,0,0,22.1,18.462H1.9A12.081,12.081,0,0,0,3.353,20.308Z"/><path class="b" d="M5.625,22.154h12.75a12.06,12.06,0,0,0,2.272-1.846H3.353A12.06,12.06,0,0,0,5.625,22.154Z"/><path class="a" d="M12,24a11.931,11.931,0,0,0,6.375-1.846H5.625A11.931,11.931,0,0,0,12,24Z"/><path class="c" d="M10.6,11.077V.089A11.889,11.889,0,0,0,6.726,1.233l-.061.045.155.477L6.414,1.46l-.406.295.058-.176q-.494.281-.957.606l.042.131h.5l-.406.3.155.477L5,2.793l-.406.295.155-.477-.1-.076a12.247,12.247,0,0,0-.991.857l.083.257h.5l-.406.294.155.478-.406-.295-.406.295.155-.478-.121-.088a11.979,11.979,0,0,0-.9,1.094l.01.032h.5l-.406.295.155.477L2.16,5.458l-.381.277a12.02,12.02,0,0,0-.666,1.242l.035.109-.065-.047A11.779,11.779,0,0,0,.4,8.98H.588L.742,8.5.9,8.98h.5l-.406.295.155.477L.742,9.457l-.4.295.155-.477-.143-.1A12,12,0,0,0,0,12c0,.312.023.617.047.923H10.6Zm-9.449,1.34-.406-.295-.4.295.155-.477-.406-.295h.5l.154-.477.156.477h.5l-.406.295Zm1.418-1.333L2.16,10.79l-.405.294.155-.477L1.5,10.312h.5l.155-.477.155.477h.5l-.406.295ZM2.411,7.942l.155.477L2.16,8.124l-.405.295.155-.477L1.5,7.647h.5L2.16,7.17l.155.477h.5Zm1.573,4.475-.406-.295-.406.295.155-.477-.4-.295h.5l.155-.477.155.477h.5l-.406.295ZM3.829,9.275l.155.477-.406-.295-.406.295.155-.477-.4-.295h.5L3.578,8.5l.155.478h.5Zm0-2.666.155.477-.406-.295-.406.295.155-.477-.4-.295h.5l.155-.477.155.477h.5ZM5.4,11.084,5,10.79l-.406.294.155-.477-.405-.295h.5L5,9.835l.155.477h.5l-.406.295ZM5.247,7.942l.155.477L5,8.124l-.406.295.155-.477L4.34,7.647h.5L5,7.17l.155.477h.5Zm0-2.666.155.477L5,5.458l-.406.295.155-.477L4.34,4.981h.5L5,4.5l.155.477h.5ZM6.82,12.417l-.406-.295-.406.295.155-.477-.406-.295h.5l.155-.477.155.477h.5l-.406.295ZM6.665,9.275l.155.477-.406-.295-.406.295.155-.477L5.757,8.98h.5L6.414,8.5l.155.478h.5Zm0-2.666.155.477-.406-.295-.406.295.155-.477-.406-.295h.5l.155-.477.155.477h.5Zm0-2.666.155.478-.406-.295-.406.295.155-.478-.406-.294h.5l.155-.478.155.478h.5Zm1.573,7.141-.406-.294-.406.294.155-.477-.406-.295h.5l.155-.477.155.477h.5l-.406.295ZM8.083,7.942l.155.477-.406-.295-.406.295.155-.477-.406-.295h.5l.155-.477.155.477h.5Zm0-2.666.155.477-.406-.295-.406.295.155-.477-.406-.295h.5L7.832,4.5l.155.477h.5Zm0-2.665.155.477-.406-.295-.406.295.155-.477-.406-.3h.5l.155-.477.155.477h.5Zm1.573,9.806-.406-.295-.406.295L9,11.94l-.406-.295h.5l.155-.477.155.477h.5L9.5,11.94ZM9.5,9.275l.155.477L9.25,9.457l-.406.295L9,9.275,8.593,8.98h.5L9.25,8.5,9.4,8.98h.5Zm0-2.666.155.477L9.25,6.791l-.406.295L9,6.609l-.406-.295h.5l.155-.477.155.477h.5Zm0-2.666.155.478L9.25,4.126l-.406.295L9,3.943l-.406-.294h.5l.155-.478.155.478h.5Zm0-2.665.155.477L9.25,1.46l-.406.295L9,1.278l-.406-.3h.5L9.25.506,9.4.983h.5Z"/><path class="c" d="M3.44,3.6c-.016.016-.031.035-.047.052h.03Z"/><path class="b" d="M2.566,5.753l-.155-.477.406-.295h-.5l-.01-.032c-.186.255-.36.517-.526.786l.381-.277Z"/><polygon class="b" points="2.16 7.17 2.005 7.647 1.504 7.647 1.91 7.942 1.755 8.419 2.16 8.124 2.566 8.419 2.411 7.942 2.817 7.647 2.315 7.647 2.16 7.17"/><polygon class="b" points="2.315 10.312 2.16 9.835 2.005 10.312 1.504 10.312 1.91 10.607 1.755 11.084 2.16 10.79 2.566 11.084 2.411 10.607 2.817 10.312 2.315 10.312"/><polygon class="b" points="4.996 4.504 4.841 4.981 4.34 4.981 4.745 5.276 4.59 5.753 4.996 5.458 5.402 5.753 5.247 5.276 5.653 4.981 5.151 4.981 4.996 4.504"/><polygon class="b" points="4.996 7.17 4.841 7.647 4.34 7.647 4.745 7.942 4.59 8.419 4.996 8.124 5.402 8.419 5.247 7.942 5.653 7.647 5.151 7.647 4.996 7.17"/><polygon class="b" points="5.151 10.312 4.996 9.835 4.841 10.312 4.34 10.312 4.745 10.607 4.59 11.084 4.996 10.79 5.402 11.084 5.247 10.607 5.653 10.312 5.151 10.312"/><polygon class="b" points="7.832 4.504 7.677 4.981 7.175 4.981 7.581 5.276 7.426 5.753 7.832 5.458 8.238 5.753 8.083 5.276 8.489 4.981 7.987 4.981 7.832 4.504"/><polygon class="b" points="7.832 7.17 7.677 7.647 7.175 7.647 7.581 7.942 7.426 8.419 7.832 8.124 8.238 8.419 8.083 7.942 8.489 7.647 7.987 7.647 7.832 7.17"/><polygon class="b" points="7.987 10.312 7.832 9.835 7.677 10.312 7.175 10.312 7.581 10.607 7.426 11.084 7.832 10.79 8.238 11.084 8.083 10.607 8.489 10.312 7.987 10.312"/><path class="b" d="M4.59,3.088,5,2.793l.406.295-.155-.477.406-.3h-.5l-.042-.131c-.159.112-.314.23-.468.35l.1.076Z"/><polygon class="b" points="7.832 1.839 7.677 2.316 7.175 2.316 7.581 2.611 7.426 3.088 7.832 2.793 8.238 3.088 8.083 2.611 8.489 2.316 7.987 2.316 7.832 1.839"/><path class="b" d="M1.113,6.977c-.01.02-.021.041-.03.062l.065.047Z"/><path class="b" d="M.337,9.752l.405-.295.406.295L.993,9.275,1.4,8.98H.9L.742,8.5.588,8.98H.4c-.017.063-.034.127-.05.191l.143.1Z"/><polygon class="b" points="0.898 11.645 0.742 11.168 0.588 11.645 0.086 11.645 0.492 11.94 0.337 12.417 0.742 12.122 1.148 12.417 0.993 11.94 1.399 11.645 0.898 11.645"/><path class="b" d="M3.172,4.421l.406-.295.406.295-.155-.478.406-.294h-.5L3.65,3.392c-.07.068-.141.135-.21.205l-.017.052h-.03c-.065.066-.124.138-.187.206l.121.088Z"/><polygon class="b" points="3.578 5.837 3.423 6.314 2.922 6.314 3.327 6.609 3.172 7.086 3.578 6.791 3.984 7.086 3.829 6.609 4.235 6.314 3.733 6.314 3.578 5.837"/><polygon class="b" points="3.578 8.502 3.423 8.98 2.922 8.98 3.327 9.275 3.172 9.752 3.578 9.457 3.984 9.752 3.829 9.275 4.235 8.98 3.733 8.98 3.578 8.502"/><polygon class="b" points="3.733 11.645 3.578 11.168 3.423 11.645 2.922 11.645 3.327 11.94 3.172 12.417 3.578 12.122 3.984 12.417 3.829 11.94 4.235 11.645 3.733 11.645"/><polygon class="b" points="6.414 3.171 6.259 3.649 5.757 3.649 6.163 3.943 6.008 4.421 6.414 4.126 6.82 4.421 6.665 3.943 7.071 3.649 6.569 3.649 6.414 3.171"/><polygon class="b" points="6.414 5.837 6.259 6.314 5.757 6.314 6.163 6.609 6.008 7.086 6.414 6.791 6.82 7.086 6.665 6.609 7.071 6.314 6.569 6.314 6.414 5.837"/><polygon class="b" points="6.414 8.502 6.259 8.98 5.757 8.98 6.163 9.275 6.008 9.752 6.414 9.457 6.82 9.752 6.665 9.275 7.071 8.98 6.569 8.98 6.414 8.502"/><polygon class="b" points="6.569 11.645 6.414 11.168 6.259 11.645 5.757 11.645 6.163 11.94 6.008 12.417 6.414 12.122 6.82 12.417 6.665 11.94 7.071 11.645 6.569 11.645"/><polygon class="b" points="9.25 3.171 9.095 3.649 8.593 3.649 8.999 3.943 8.844 4.421 9.25 4.126 9.656 4.421 9.501 3.943 9.907 3.649 9.405 3.649 9.25 3.171"/><polygon class="b" points="9.25 5.837 9.095 6.314 8.593 6.314 8.999 6.609 8.844 7.086 9.25 6.791 9.656 7.086 9.501 6.609 9.907 6.314 9.405 6.314 9.25 5.837"/><polygon class="b" points="9.25 8.502 9.095 8.98 8.593 8.98 8.999 9.275 8.844 9.752 9.25 9.457 9.656 9.752 9.501 9.275 9.907 8.98 9.405 8.98 9.25 8.502"/><polygon class="b" points="9.405 11.645 9.25 11.168 9.095 11.645 8.593 11.645 8.999 11.94 8.844 12.417 9.25 12.122 9.656 12.417 9.501 11.94 9.907 11.645 9.405 11.645"/><path class="b" d="M6.414,1.46l.406.295-.155-.477.061-.045c-.223.11-.445.223-.66.346l-.058.176Z"/><polygon class="b" points="9.25 0.506 9.095 0.983 8.593 0.983 8.999 1.278 8.844 1.755 9.25 1.46 9.656 1.755 9.501 1.278 9.907 0.983 9.405 0.983 9.25 0.506"/></svg>